<svg xmlns="http://www.w3.org/2000/svg" xmlns:xlink="http://www.w3.org/1999/xlink" version="1.1" x="0px" y="0px" viewBox="0 0 382.459 231.26874999999998" style="enable-background:new 0 0 382.459 185.015;" xml:space="preserve"><g><path d="M228.582,129.803l-17.657,1.793c-0.399,0.042-0.802,0.046-1.201,0.046c-0.542,0-1.092-0.046-1.64-0.124   c-0.548,0.077-1.098,0.111-1.64,0.111c-0.399,0-0.802-0.023-1.208-0.066l-17.65-1.759c-0.338,3.483-0.547,6.576-0.694,10.576   h42.383C229.128,136.38,228.919,133.283,228.582,129.803z"/><path d="M186.417,159.38c-0.046,1-0.101,3-0.167,6h43.667c-0.067-3-0.121-5-0.167-6H186.417z"/><path d="M184.254,152.614c0.189-9.309,0.351-17.162,1.283-25.402l19.941,2.063c0.891,0.095,1.763,0.053,2.604-0.092   c0.841,0.145,1.714,0.187,2.604,0.092l19.941-2.063c0.933,8.24,1.094,16.094,1.283,25.402c0.133,6.485,0.282,13.836,0.724,22.389   c0.262,5.073,4.457,9.011,9.479,9.011c0.165,0,0.33-0.004,0.497-0.013c5.239-0.271,9.269-4.736,8.998-9.977   c-0.426-8.258-0.572-15.451-0.702-21.798c-0.219-10.745-0.43-20.276-1.878-30.846h-81.894c-1.448,10.57-1.659,20.1-1.878,30.846   c-0.13,6.347-0.276,13.54-0.702,21.798c-0.271,5.24,3.759,9.706,8.998,9.977c0.167,0.009,0.332,0.013,0.497,0.013   c5.022,0,9.218-3.938,9.479-9.011C183.972,166.45,184.122,159.099,184.254,152.614z"/><path d="M164.279,81.748c2.838,3.14,8.532,4.398,15.087,4.632h4.88c4.613-0.144,9.397-0.655,13.747-1.284   c3.28-0.475,5.554-3.518,5.08-6.797c-0.475-3.28-3.521-5.558-6.797-5.079c-8.298,1.199-17.462,1.446-21.633,0.703   c1.461-5.567,2.873-10.013,4.191-13.578l2.25,0.56c-1.103,2.953-2.29,6.581-3.524,11.033c1.062,0.07,2.285,0.105,3.639,0.105   c2.365,0,4.958-0.111,7.582-0.314L185.03,60.44l6.593-2.192l1.698,13.035c0.668-0.079,1.33-0.163,1.984-0.254l-2.125-16.315   l11.688-1.523l-2.681,19.403c0.676,0.522,1.273,1.143,1.764,1.848l2.976-21.541l10.578,1.461l-13.402,20.311   c0.473,0.73,0.836,1.539,1.061,2.406l0.919,0.607l-0.81-0.112c0.026,0.131,0.057,0.261,0.076,0.395   c0.445,3.081-0.873,6.396-3.185,8.411h11.838c-2.207-1.924-3.498-5.033-3.223-7.992l-4.689-3.094l13.585-20.589l12.242,8.078   l-5.831,8.837c3.064,0.272,6.127,0.422,8.882,0.422c1.354,0,2.577-0.035,3.639-0.105c-1.234-4.453-2.421-8.081-3.524-11.033   l2.25-0.56c1.318,3.564,2.729,8.011,4.191,13.578c-4.171,0.743-13.335,0.497-21.633-0.703c-3.275-0.479-6.322,1.799-6.797,5.079   c-0.474,3.28,1.8,6.323,5.08,6.797c4.35,0.629,9.134,1.14,13.747,1.284h4.88c6.555-0.233,12.249-1.492,15.087-4.632   c1.979-2.188,2.695-5.12,1.966-8.043c-1.546-6.203-3.136-11.61-4.792-16.278c-5.261-14.831-11.194-21.996-18.569-23.033   c-2.329-0.329-4.445-0.014-6.31,0.986h-0.54c-3.849,5-9.386,9.306-15.56,9.306s-11.712-4.306-15.56-9.306h-0.539   c-1.865-1-3.981-1.315-6.31-0.986c-7.375,1.036-13.308,8.266-18.569,23.097c-1.656,4.668-3.246,10.043-4.792,16.246   C161.584,76.66,162.3,79.56,164.279,81.748z"/><path d="M208.083,42.228c10.425,0,18.877-12.925,18.877-23.35C226.96,8.452,218.508,0,208.083,0   c-10.424,0-18.877,8.452-18.877,18.878C189.206,29.303,197.659,42.228,208.083,42.228z"/><ellipse transform="matrix(0.269 -0.9631 0.9631 0.269 59.0608 132.1354)" cx="116.583" cy="27.157" rx="22.5" ry="19.292"/><path d="M92.999,93.13c0.271-3.891,0.753-7.781,1.334-11.585l-17.045-24.82c-2.903-4.228-1.826-10.028,2.401-12.932   c1.558-1.069,3.376-1.634,5.259-1.634c3.067,0,5.937,1.508,7.672,4.035l15.688,22.845l21.901-8.638l9.293-18.836l4.998,2.948   l-12.837,14.713l0.405,0.442l2.102-0.829c0.228-0.09,0.459-0.165,0.692-0.237l14.281-16.37l6.918,6.704l-0.474,0.435l-0.788-1.13   l-13.736,10.642c0.682,0.274,1.329,0.616,1.923,1.04l11.375-8.814l5.661,8.112l-13.155,7.827c0.04,0.82-0.023,1.641-0.203,2.447   l16.229-9.655l-6.152-8.815l2.236-2.048l-9.955-9.647l-3.184,3.65l-7.175-4.232l-8.283,16.789l-20.303,0.829L94.102,39.364   c-0.778-0.828-1.712-1.418-2.712-1.781c-0.643-0.313-1.309-0.585-2.023-0.763c-8.205-2.046-20.099,2.41-24.938,16.483   c-2.958,8.77-4.856,16.156-5.829,23.591C71.999,78.102,84.04,84.083,92.999,93.13z"/><path d="M122.045,121.38v-19h-9v-1h-13.027c4.273,7,7.221,14,8.436,22h6.01l-9.14,37.361c-2.705,2.497-4.409,6.17-4.409,10.141   c0,7.548,6.119,13.721,13.667,13.721s13.667-6.092,13.667-13.64c0-2.079-0.478-4.028-1.308-5.792l2.103-8.534V121.38H122.045z    M114.584,179.013c-4.43,0-8.022-3.591-8.022-8.022c0-4.43,3.591-8.022,8.022-8.022s8.022,3.591,8.022,8.022   C122.605,175.421,119.014,179.013,114.584,179.013z"/><path d="M272.42,71.196c-0.123-0.282-0.23-0.568-0.324-0.857l-3.408,1.241c-3.633,1.323-5.506,5.34-4.183,8.972   c1.034,2.843,3.719,4.607,6.578,4.607c0.795,0,1.604-0.137,2.394-0.425l13.44-4.893l-9.379-3.699   C275.227,75.231,273.41,73.474,272.42,71.196z"/><path d="M314.045,140.38h2v39h11v-14h41.333c0.631,4,1.328,9,2.133,14h11.174c-7.889-45-7.648-89.754,0.773-133.9   c-3.602-0.688-7.203-1.424-10.805-2.111c-5.42,28.411-7.541,57.012-6.395,86.012h-51.214V140.38z M327.045,140.38h38.823   c0.43,6,1.012,12,1.75,19h-40.573V140.38z"/><ellipse transform="matrix(0.4488 -0.8936 0.8936 0.4488 150.2258 287.86)" cx="308.451" cy="22.157" rx="22.5" ry="19.292"/><path d="M294.045,102.38v19h-8v21.259l7.808,31.73c1.234,5.017,5.729,8.375,10.673,8.375c0.87,0,1.755-0.104,2.637-0.321   c5.899-1.452,9.505-7.628,8.054-13.526L304.07,123.38h35.453c1.055,0,2.071,0.06,3.037-0.218   c7.325-0.842,14.599-4.22,17.006-16.607c2.485-21.351,1.079-33.917-5.461-53.306c-4.839-14.073-16.733-18.503-24.938-16.456   c-0.714,0.178-1.38,0.464-2.023,0.777c-0.999,0.363-1.933,0.959-2.711,1.787L307.408,57.48l-13.772,5.016l16.589,6.544   l15.688-22.844c1.736-2.527,4.604-4.035,7.673-4.035c1.883,0,3.701,0.565,5.258,1.634c4.228,2.903,5.305,8.704,2.402,12.931   l-17.045,24.603c1.016,6.649,1.703,14.052,1.544,20.052h-23.7v1H294.045z"/><path d="M271.666,67.049l-13.155-7.827l5.662-8.112l11.375,8.814c0.594-0.425,1.241-0.766,1.923-1.04l-13.735-10.642l-0.789,1.13   l-0.475-0.435l6.918-6.704l14.282,16.37c0.232,0.071,0.463,0.146,0.691,0.236l2.101,0.829l0.405-0.442l-12.838-14.713l4.998-2.948   l9.294,18.836l2.768,1.092l-11.222-22.746l-7.175,4.232l-3.184-3.65l-9.955,9.647l2.236,2.049l-6.152,8.815l16.229,9.655   C271.689,68.691,271.627,67.869,271.666,67.049z"/><path d="M337.543,45.69c-3.187-2.188-7.544-1.379-9.733,1.808l-16.725,24.354l-27.565-10.872c-3.595-1.419-7.661,0.347-9.08,3.943   c-1.419,3.597,0.347,7.662,3.943,9.08l32.75,12.917c0.838,0.331,1.707,0.489,2.566,0.489c2.254,0,4.436-1.091,5.772-3.038   l19.879-28.947C341.539,52.236,340.729,47.878,337.543,45.69z"/><polygon points="265.938,118.38 272.75,183.38 283.045,183.38 283.045,118.38 291.045,118.38 291.045,99.38 299.045,99.38    299.045,89.38 116.045,89.38 116.045,99.38 125.045,99.38 125.045,118.38 132.045,118.38 132.045,183.38 143.75,183.38    150.562,118.38  "/><path d="M144.095,64.923c-1.419-3.597-5.484-5.362-9.08-3.943L107.45,71.851L90.725,47.497c-2.189-3.187-6.546-3.995-9.733-1.808   c-3.187,2.188-3.996,6.546-1.808,9.733L99.063,84.37c1.337,1.946,3.519,3.038,5.772,3.038c0.859,0,1.729-0.159,2.566-0.489   l32.75-12.917C143.749,72.584,145.514,68.519,144.095,64.923z"/><path d="M31.302,55.69L4.869,49.815c-2.155-0.478-4.293,0.88-4.772,3.037c-0.479,2.156,0.88,4.293,3.036,4.772l21.566,4.792   l4.778,19.756c2.412-1.168,4.92-2.165,7.51-2.979L31.302,55.69z"/><circle cx="114.583" cy="170.991" r="4.022"/><path d="M53.584,79.3c-29.192,0-52.857,23.665-52.857,52.857s23.665,52.857,52.857,52.857s52.857-23.665,52.857-52.857   S82.776,79.3,53.584,79.3z M59.6,126.141l16.993-29.433c4.964,3.233,9.207,7.476,12.44,12.44L59.6,126.141z M56.045,89.929   c6,0.314,11.846,1.935,16.996,4.571l-16.996,29.438V89.929z M45.364,134.38l-29.438,16.996c-2.636-5.15-4.257-10.996-4.571-16.996   H45.364z M11.355,130.38c0.314-7,1.935-11.846,4.571-16.996l29.438,16.996H11.355z M51.045,174.386   c-6-0.314-11.846-1.935-16.996-4.571l16.996-29.438V174.386z M56.045,140.377l16.996,29.438c-5.15,2.636-10.996,4.257-16.996,4.571   V140.377z M51.045,89.929v34.009L34.05,94.5C39.199,91.864,45.045,90.243,51.045,89.929z M30.574,96.708l16.993,29.433   l-29.433-16.993C21.367,104.184,25.61,99.941,30.574,96.708z M18.134,155.167l29.433-16.993l-16.993,29.433   C25.61,164.374,21.367,160.131,18.134,155.167z M76.593,167.607l-16.993-29.433l29.433,16.993   C85.8,160.131,81.557,164.374,76.593,167.607z M61.803,134.38h34.009c-0.314,6-1.935,11.846-4.571,16.996L61.803,134.38z    M95.812,130.38H61.803l29.438-16.996C93.877,118.534,95.498,123.38,95.812,130.38z"/></g><text x="0" y="200.015" fill="#000000" font-size="5px" font-weight="bold" font-family="'Helvetica Neue', Helvetica, Arial-Unicode, Arial, Sans-serif">Created by Gan Khoon Lay</text><text x="0" y="205.015" fill="#000000" font-size="5px" font-weight="bold" font-family="'Helvetica Neue', Helvetica, Arial-Unicode, Arial, Sans-serif">from the Noun Project</text></svg>